<?xml version="1.0" encoding="utf-8"?>
<!-- Generator: Adobe Illustrator 25.4.1, SVG Export Plug-In . SVG Version: 6.00 Build 0)  -->
<svg version="1.1" id="Layer_1" xmlns="http://www.w3.org/2000/svg" xmlns:xlink="http://www.w3.org/1999/xlink" x="0px" y="0px"
	 viewBox="0 0 1000 722.4" style="enable-background:new 0 0 1000 722.4;" xml:space="preserve">
<style type="text/css">
	.st0{fill:#050709;}
	.st1{fill:#393d3e;}
	.st2{fill:#FFFFFF;}
</style>
<g>
	<path class="st0" d="M138.1,102.8l69.8,133.9c12.7,24.3,37.8,39.6,65.2,39.6h453.1c27.2,0,52.2-15,64.9-39L861.9,104L138.1,102.8z"
		/>
	<g>
		<g>
			<path class="st1" d="M662.6,493.2h52c8.9,0,16.2-7.2,16.2-16.2V474c0-6.1-5-11.1-11.1-11.1H687c-3.9,0-7.5,2-9.5,5.4L662.6,493.2
				z"/>
			<path class="st1" d="M337.4,493.2h-52c-8.9,0-16.2-7.2-16.2-16.2V474c0-6.1,5-11.1,11.1-11.1H313c3.9,0,7.5,2,9.5,5.4
				L337.4,493.2z"/>
		</g>
		<g>
			<path class="st0" d="M641.2,711.4h61.5c1.3,0,2.4-1.1,2.4-2.4v-84.7h-66.2V709C638.8,710.3,639.9,711.4,641.2,711.4z"/>
			<path class="st0" d="M297.3,711.4h61.5c1.3,0,2.4-1.1,2.4-2.4v-84.7H295V709C295,710.3,296,711.4,297.3,711.4z"/>
		</g>
		<g>
			<path class="st1" d="M283.2,596.4l10.1,75.9c2,9.3,10.2,15.9,19.7,15.9h193h180.9c9.5,0,17.7-6.6,19.7-15.9l10.1-75.9L500,621.8
				L283.2,596.4z"/>
			<path class="st1" d="M715.6,530.4L663,483l-33.4-82.6c-2.9-7.2-9.9-12-17.7-12H506H388.2c-7.8,0-14.8,4.7-17.7,12L337,483
				l-52.6,47.4c-4.9,4.4-7.7,10.7-7.7,17.3l6.5,48.7L500,621.8l216.8-25.4l6.5-48.7C723.3,541.1,720.5,534.8,715.6,530.4z"/>
		</g>
		<path class="st0" d="M602.6,578.6c0,0,13.1-39.2,88.5-39.2l0,26.7c0,6.9-5.6,12.6-12.6,12.6H602.6z"/>
		<path class="st0" d="M397.4,578.6c0,0-13.1-39.2-88.5-39.2V566c0,6.9,5.6,12.6,12.6,12.6H397.4z"/>
		<g>
			<path class="st0" d="M483.7,665.1H325.7v-29c0-2.3,1.9-4.2,4.2-4.2h153.7V665.1z"/>
			<path class="st0" d="M516.3,665.1h157.9v-29c0-2.3-1.9-4.2-4.2-4.2H516.3V665.1z"/>
		</g>
		<path class="st0" d="M579,603.7H421c-3.3,0-6-2.7-6-6v-44.3h170v44.3C585,601,582.3,603.7,579,603.7z"/>
		<path class="st2" d="M627.2,553.3c4.8,7.9,13.4,13.2,23.3,13.2c14.9,0,26.9-11.9,27.3-26.7C654.8,541.3,638.5,546.8,627.2,553.3z"
			/>
		<path class="st2" d="M372.8,553.3c-11.3-6.4-27.6-11.9-50.7-13.5c0.4,14.8,12.5,26.7,27.3,26.7C359.4,566.4,368,561.1,372.8,553.3
			z"/>
		<g>
			<g>
				<rect x="357.6" y="631.9" class="st2" width="9.1" height="33.2"/>
				<rect x="377.2" y="631.9" class="st2" width="9.1" height="33.2"/>
			</g>
			<g>
				<rect x="613.8" y="631.9" class="st2" width="9.1" height="33.2"/>
				<rect x="633.4" y="631.9" class="st2" width="9.1" height="33.2"/>
			</g>
		</g>
		<rect x="430.6" y="676" class="st0" width="138.8" height="12.2"/>
		<g>
			<path class="st0" d="M348.9,483h302.2L618.4,405c-1.1-2.7-3.7-4.4-6.6-4.4H388.2c-2.9,0-5.5,1.7-6.6,4.4L348.9,483z"/>
		</g>
	</g>
	<g>
		<path class="st0" d="M751.1,577.1c-1.9,0-3.8-0.5-5.6-1.5c-5.6-3.1-7.5-10.1-4.4-15.7l225.2-402.5H33.7l225.2,402.5
			c3.1,5.6,1.1,12.6-4.4,15.7c-5.6,3.1-12.6,1.1-15.7-4.4L4,151.5c-2-3.6-2-7.9,0.1-11.5c2.1-3.5,5.8-5.7,9.9-5.7H986
			c4.1,0,7.9,2.2,9.9,5.7c2.1,3.5,2.1,7.9,0.1,11.5L761.2,571.2C759.1,575,755.1,577.1,751.1,577.1z"/>
	</g>
	<g>
		<path class="st2" d="M244.9,160.5c4.3-7.8,10.3-13.9,18.1-18.3c7.7-4.4,16.5-6.6,26.3-6.6c12,0,22.3,3.2,30.8,9.5
			c8.5,6.3,14.3,15,17.1,25.9h-27.1c-2-4.2-4.9-7.4-8.6-9.7c-3.7-2.2-7.9-3.3-12.6-3.3c-7.6,0-13.7,2.6-18.4,7.9
			c-4.7,5.3-7.1,12.3-7.1,21.2c0,8.8,2.4,15.9,7.1,21.2c4.7,5.3,10.8,7.9,18.4,7.9c4.7,0,8.9-1.1,12.6-3.3c3.7-2.2,6.6-5.4,8.6-9.6
			h27.1c-2.9,10.9-8.6,19.6-17.1,25.8c-8.5,6.3-18.8,9.4-30.8,9.4c-9.8,0-18.6-2.2-26.3-6.6c-7.7-4.4-13.8-10.4-18.1-18.2
			c-4.3-7.8-6.5-16.7-6.5-26.6S240.6,168.4,244.9,160.5z"/>
		<path class="st2" d="M415.3,220.1h-37.7l-6,17.9h-25.8l36.6-101.1h28.5l36.6,101.1h-26.1L415.3,220.1z M408.9,201.1l-12.5-37
			l-12.4,37H408.9z"/>
		<path class="st2" d="M510,237.9l-21-38.2h-5.9v38.2h-24.6V136.9h41.3c8,0,14.8,1.4,20.4,4.2c5.6,2.8,9.8,6.6,12.6,11.4
			c2.8,4.8,4.2,10.2,4.2,16.2c0,6.7-1.9,12.7-5.7,18c-3.8,5.3-9.4,9-16.8,11.2l23.3,40H510z M483.1,182.4h15.3
			c4.5,0,7.9-1.1,10.2-3.3c2.3-2.2,3.4-5.3,3.4-9.4c0-3.8-1.1-6.9-3.4-9.1c-2.3-2.2-5.6-3.3-10.2-3.3h-15.3V182.4z"/>
		<path class="st2" d="M574,232.3c-7.9-4.4-14.2-10.6-18.9-18.5c-4.7-7.9-7-16.8-7-26.7c0-9.9,2.3-18.8,7-26.6
			c4.7-7.9,10.9-14,18.9-18.4c7.9-4.4,16.6-6.6,26.1-6.6c9.5,0,18.2,2.2,26.1,6.6c7.9,4.4,14.2,10.6,18.7,18.4
			c4.6,7.9,6.8,16.8,6.8,26.6c0,9.9-2.3,18.8-6.9,26.7c-4.6,7.9-10.9,14.1-18.7,18.5c-7.9,4.4-16.6,6.6-26.1,6.6
			C590.7,239,581.9,236.8,574,232.3z M619.5,208.4c4.8-5.4,7.3-12.5,7.3-21.3c0-8.9-2.4-16.1-7.3-21.4c-4.8-5.3-11.3-8-19.4-8
			c-8.2,0-14.7,2.6-19.5,7.9c-4.8,5.3-7.3,12.4-7.3,21.5c0,8.9,2.4,16.1,7.3,21.4c4.8,5.3,11.4,8,19.5,8
			C608.2,216.5,614.7,213.8,619.5,208.4z"/>
		<path class="st2" d="M732.6,168.8c-1.8-3.4-4.4-5.9-7.8-7.7c-3.4-1.8-7.4-2.7-12-2.7c-8,0-14.4,2.6-19.2,7.8s-7.2,12.2-7.2,21
			c0,9.3,2.5,16.6,7.6,21.8c5,5.2,12,7.8,20.8,7.8c6.1,0,11.2-1.5,15.3-4.6c4.2-3.1,7.2-7.5,9.1-13.2H708v-18.1h53.6v22.9
			c-1.8,6.1-4.9,11.9-9.3,17.1c-4.4,5.3-9.9,9.6-16.6,12.8c-6.7,3.3-14.3,4.9-22.7,4.9c-10,0-18.9-2.2-26.7-6.6
			c-7.8-4.4-13.9-10.4-18.3-18.2c-4.4-7.8-6.6-16.7-6.6-26.6s2.2-18.9,6.6-26.7c4.4-7.8,10.4-13.9,18.2-18.3
			c7.8-4.4,16.7-6.6,26.6-6.6c12.1,0,22.3,2.9,30.6,8.8c8.3,5.9,13.8,14,16.5,24.3H732.6z"/>
	</g>
	<g>
		<path class="st0" d="M320.5,319.7c1.6-2.8,3.9-5,6.7-6.6c2.8-1.6,5.9-2.4,9.3-2.4c3.8,0,7.2,0.9,10.2,2.8c3,1.9,5.2,4.6,6.5,8
			h-7.1c-0.9-1.9-2.2-3.3-3.9-4.3c-1.7-0.9-3.6-1.4-5.8-1.4c-2.4,0-4.5,0.5-6.4,1.6c-1.9,1.1-3.3,2.6-4.4,4.6c-1.1,2-1.6,4.3-1.6,7
			c0,2.7,0.5,5,1.6,7c1.1,2,2.5,3.5,4.4,4.6c1.9,1.1,4,1.6,6.4,1.6c2.2,0,4.1-0.5,5.8-1.4c1.7-0.9,3-2.4,3.9-4.3h7.1
			c-1.3,3.5-3.5,6.1-6.5,8c-3,1.9-6.4,2.8-10.2,2.8c-3.4,0-6.5-0.8-9.3-2.4c-2.8-1.6-5-3.8-6.7-6.6c-1.6-2.8-2.5-6-2.5-9.5
			C318,325.7,318.9,322.5,320.5,319.7z"/>
		<path class="st0" d="M381.8,340h-15.1l-2.6,7.4H358l12.9-36.1h6.8l12.9,36.1h-6.2L381.8,340z M380.1,335.1l-5.9-16.7l-5.9,16.7
			H380.1z"/>
		<path class="st0" d="M414.9,347.3l-8.3-14.4h-4.5v14.4h-5.9v-36h12.4c2.8,0,5.1,0.5,7,1.5c1.9,1,3.4,2.3,4.3,3.9
			c1,1.6,1.4,3.4,1.4,5.4c0,2.4-0.7,4.5-2,6.4c-1.4,1.9-3.5,3.2-6.3,3.9l8.9,14.9H414.9z M402.1,328.2h6.5c2.2,0,3.9-0.6,5-1.7
			c1.1-1.1,1.7-2.6,1.7-4.5c0-1.9-0.6-3.3-1.7-4.4c-1.1-1.1-2.8-1.6-5-1.6h-6.5V328.2z"/>
		<path class="st0" d="M443,319.7c1.6-2.8,3.9-5,6.7-6.6c2.8-1.6,5.9-2.4,9.3-2.4c3.8,0,7.2,0.9,10.2,2.8c3,1.9,5.2,4.6,6.5,8h-7.1
			c-0.9-1.9-2.2-3.3-3.9-4.3c-1.7-0.9-3.6-1.4-5.8-1.4c-2.4,0-4.5,0.5-6.4,1.6c-1.9,1.1-3.3,2.6-4.4,4.6c-1.1,2-1.6,4.3-1.6,7
			c0,2.7,0.5,5,1.6,7c1.1,2,2.5,3.5,4.4,4.6c1.9,1.1,4,1.6,6.4,1.6c2.2,0,4.1-0.5,5.8-1.4c1.7-0.9,3-2.4,3.9-4.3h7.1
			c-1.3,3.5-3.5,6.1-6.5,8c-3,1.9-6.4,2.8-10.2,2.8c-3.4,0-6.5-0.8-9.3-2.4c-2.8-1.6-5-3.8-6.7-6.6c-1.6-2.8-2.5-6-2.5-9.5
			C440.5,325.7,441.3,322.5,443,319.7z"/>
		<path class="st0" d="M504.3,340h-15.1l-2.6,7.4h-6.2l12.9-36.1h6.8l12.9,36.1h-6.2L504.3,340z M502.6,335.1l-5.9-16.7l-5.9,16.7
			H502.6z"/>
		<path class="st0" d="M541.9,311.3v4.8h-9.6v31.2h-5.9v-31.2h-9.6v-4.8H541.9z"/>
		<path class="st0" d="M569.6,340h-15.1l-2.6,7.4h-6.2l12.9-36.1h6.8l12.9,36.1h-6.2L569.6,340z M568,335.1l-5.9-16.7l-5.9,16.7H568
			z"/>
		<path class="st0" d="M589.9,342.6h12.2v4.8H584v-36h5.9V342.6z"/>
		<path class="st0" d="M614.2,345.3c-2.8-1.6-5.1-3.8-6.7-6.6c-1.6-2.8-2.5-6-2.5-9.5c0-3.5,0.8-6.7,2.5-9.5c1.6-2.8,3.9-5,6.7-6.6
			c2.8-1.6,5.9-2.4,9.3-2.4c3.4,0,6.5,0.8,9.3,2.4c2.8,1.6,5,3.8,6.7,6.6c1.6,2.8,2.4,6,2.4,9.5c0,3.5-0.8,6.7-2.4,9.5
			c-1.6,2.8-3.8,5-6.7,6.6c-2.8,1.6-5.9,2.4-9.3,2.4C620.1,347.7,617,346.9,614.2,345.3z M629.9,340.9c1.9-1.1,3.3-2.6,4.4-4.7
			c1.1-2,1.6-4.4,1.6-7c0-2.7-0.5-5-1.6-7c-1.1-2-2.5-3.5-4.4-4.6c-1.9-1.1-4-1.6-6.4-1.6c-2.4,0-4.5,0.5-6.4,1.6
			c-1.9,1.1-3.3,2.6-4.4,4.6c-1.1,2-1.6,4.3-1.6,7c0,2.7,0.5,5,1.6,7c1.1,2,2.5,3.6,4.4,4.7c1.9,1.1,4,1.6,6.4,1.6
			C625.9,342.6,628,342,629.9,340.9z"/>
		<path class="st0" d="M673.8,321.7c-0.9-1.8-2.2-3.2-3.9-4.1c-1.7-0.9-3.6-1.4-5.8-1.4c-2.4,0-4.5,0.5-6.4,1.6
			c-1.9,1.1-3.3,2.6-4.4,4.6c-1.1,2-1.6,4.3-1.6,6.8c0,2.6,0.5,4.9,1.6,6.9c1.1,2,2.5,3.5,4.4,4.6c1.9,1.1,4,1.6,6.4,1.6
			c3.2,0,5.8-0.9,7.8-2.7c2-1.8,3.2-4.2,3.7-7.3h-13.5v-4.7H682v4.6c-0.4,2.8-1.4,5.4-3,7.7s-3.7,4.2-6.3,5.6
			c-2.6,1.4-5.4,2.1-8.6,2.1c-3.4,0-6.5-0.8-9.3-2.4c-2.8-1.6-5-3.8-6.7-6.6c-1.6-2.8-2.5-6-2.5-9.5c0-3.5,0.8-6.7,2.5-9.5
			c1.6-2.8,3.9-5,6.7-6.6c2.8-1.6,5.9-2.4,9.3-2.4c3.8,0,7.2,0.9,10.2,2.8c3,1.9,5.2,4.6,6.5,8H673.8z"/>
	</g>
	<g>
		<polygon class="st0" points="421,21.6 429.5,38.8 448.6,41.6 434.8,55 438.1,74 421,65 404,74 407.3,55 393.5,41.6 412.5,38.8 		
			"/>
		<polygon class="st0" points="500,21.6 508.5,38.8 527.5,41.6 513.8,55 517,74 500,65 483,74 486.2,55 472.5,41.6 491.5,38.8 		"/>
		<polygon class="st0" points="579,21.6 587.5,38.8 606.5,41.6 592.7,55 596,74 579,65 561.9,74 565.2,55 551.4,41.6 570.5,38.8 		
			"/>
	</g>
</g>
</svg>
