<svg version="1.1" id="Layer_1" xmlns="http://www.w3.org/2000/svg" x="0" y="0" viewBox="0 0 1000 722.4" style="enable-background:new 0 0 1000 722.4" xml:space="preserve"><style>.st0{fill:#050709}.st1{fill:#393d3e}.st2{fill:#fff}</style><path class="st0" d="m138.1 102.8 69.8 133.9c12.7 24.3 37.8 39.6 65.2 39.6h453.1c27.2 0 52.2-15 64.9-39L861.9 104l-723.8-1.2z"/><path class="st1" d="M662.6 493.2h52c8.9 0 16.2-7.2 16.2-16.2v-3c0-6.1-5-11.1-11.1-11.1H687c-3.9 0-7.5 2-9.5 5.4l-14.9 24.9zM337.4 493.2h-52c-8.9 0-16.2-7.2-16.2-16.2v-3c0-6.1 5-11.1 11.1-11.1H313c3.9 0 7.5 2 9.5 5.4l14.9 24.9z"/><path class="st0" d="M641.2 711.4h61.5c1.3 0 2.4-1.1 2.4-2.4v-84.7h-66.2V709c-.1 1.3 1 2.4 2.3 2.4zM297.3 711.4h61.5c1.3 0 2.4-1.1 2.4-2.4v-84.7H295V709c0 1.3 1 2.4 2.3 2.4z"/><path class="st1" d="m283.2 596.4 10.1 75.9c2 9.3 10.2 15.9 19.7 15.9h373.9c9.5 0 17.7-6.6 19.7-15.9l10.1-75.9L500 621.8l-216.8-25.4z"/><path class="st1" d="M715.6 530.4 663 483l-33.4-82.6c-2.9-7.2-9.9-12-17.7-12H388.2c-7.8 0-14.8 4.7-17.7 12L337 483l-52.6 47.4c-4.9 4.4-7.7 10.7-7.7 17.3l6.5 48.7L500 621.8l216.8-25.4 6.5-48.7c0-6.6-2.8-12.9-7.7-17.3z"/><path class="st0" d="M602.6 578.6s13.1-39.2 88.5-39.2v26.7c0 6.9-5.6 12.6-12.6 12.6h-75.9zM397.4 578.6s-13.1-39.2-88.5-39.2V566c0 6.9 5.6 12.6 12.6 12.6h75.9zM483.7 665.1h-158v-29c0-2.3 1.9-4.2 4.2-4.2h153.7v33.2zM516.3 665.1h157.9v-29c0-2.3-1.9-4.2-4.2-4.2H516.3v33.2zM579 603.7H421c-3.3 0-6-2.7-6-6v-44.3h170v44.3c0 3.3-2.7 6-6 6z"/><path class="st2" d="M627.2 553.3c4.8 7.9 13.4 13.2 23.3 13.2 14.9 0 26.9-11.9 27.3-26.7-23 1.5-39.3 7-50.6 13.5zM372.8 553.3c-11.3-6.4-27.6-11.9-50.7-13.5.4 14.8 12.5 26.7 27.3 26.7 10-.1 18.6-5.4 23.4-13.2zM357.6 631.9h9.1v33.2h-9.1zM377.2 631.9h9.1v33.2h-9.1zM613.8 631.9h9.1v33.2h-9.1zM633.4 631.9h9.1v33.2h-9.1z"/><path class="st0" d="M430.6 676h138.8v12.2H430.6zM348.9 483h302.2l-32.7-78c-1.1-2.7-3.7-4.4-6.6-4.4H388.2c-2.9 0-5.5 1.7-6.6 4.4l-32.7 78z"/><path class="st0" d="M751.1 577.1c-1.9 0-3.8-.5-5.6-1.5-5.6-3.1-7.5-10.1-4.4-15.7l225.2-402.5H33.7l225.2 402.5c3.1 5.6 1.1 12.6-4.4 15.7-5.6 3.1-12.6 1.1-15.7-4.4L4 151.5c-2-3.6-2-7.9.1-11.5 2.1-3.5 5.8-5.7 9.9-5.7h972c4.1 0 7.9 2.2 9.9 5.7 2.1 3.5 2.1 7.9.1 11.5L761.2 571.2c-2.1 3.8-6.1 5.9-10.1 5.9z"/><path class="st2" d="M244.9 160.5c4.3-7.8 10.3-13.9 18.1-18.3 7.7-4.4 16.5-6.6 26.3-6.6 12 0 22.3 3.2 30.8 9.5s14.3 15 17.1 25.9h-27.1c-2-4.2-4.9-7.4-8.6-9.7-3.7-2.2-7.9-3.3-12.6-3.3-7.6 0-13.7 2.6-18.4 7.9-4.7 5.3-7.1 12.3-7.1 21.2 0 8.8 2.4 15.9 7.1 21.2 4.7 5.3 10.8 7.9 18.4 7.9 4.7 0 8.9-1.1 12.6-3.3 3.7-2.2 6.6-5.4 8.6-9.6h27.1c-2.9 10.9-8.6 19.6-17.1 25.8-8.5 6.3-18.8 9.4-30.8 9.4-9.8 0-18.6-2.2-26.3-6.6-7.7-4.4-13.8-10.4-18.1-18.2-4.3-7.8-6.5-16.7-6.5-26.6s2.2-18.7 6.5-26.6zM415.3 220.1h-37.7l-6 17.9h-25.8l36.6-101.1h28.5L447.5 238h-26.1l-6.1-17.9zm-6.4-19-12.5-37-12.4 37h24.9zM510 237.9l-21-38.2h-5.9v38.2h-24.6v-101h41.3c8 0 14.8 1.4 20.4 4.2 5.6 2.8 9.8 6.6 12.6 11.4 2.8 4.8 4.2 10.2 4.2 16.2 0 6.7-1.9 12.7-5.7 18-3.8 5.3-9.4 9-16.8 11.2l23.3 40H510zm-26.9-55.5h15.3c4.5 0 7.9-1.1 10.2-3.3 2.3-2.2 3.4-5.3 3.4-9.4 0-3.8-1.1-6.9-3.4-9.1-2.3-2.2-5.6-3.3-10.2-3.3h-15.3v25.1zM574 232.3c-7.9-4.4-14.2-10.6-18.9-18.5-4.7-7.9-7-16.8-7-26.7 0-9.9 2.3-18.8 7-26.6 4.7-7.9 10.9-14 18.9-18.4 7.9-4.4 16.6-6.6 26.1-6.6s18.2 2.2 26.1 6.6c7.9 4.4 14.2 10.6 18.7 18.4 4.6 7.9 6.8 16.8 6.8 26.6 0 9.9-2.3 18.8-6.9 26.7-4.6 7.9-10.9 14.1-18.7 18.5-7.9 4.4-16.6 6.6-26.1 6.6-9.3.1-18.1-2.1-26-6.6zm45.5-23.9c4.8-5.4 7.3-12.5 7.3-21.3 0-8.9-2.4-16.1-7.3-21.4-4.8-5.3-11.3-8-19.4-8-8.2 0-14.7 2.6-19.5 7.9-4.8 5.3-7.3 12.4-7.3 21.5 0 8.9 2.4 16.1 7.3 21.4 4.8 5.3 11.4 8 19.5 8s14.6-2.7 19.4-8.1zM732.6 168.8c-1.8-3.4-4.4-5.9-7.8-7.7-3.4-1.8-7.4-2.7-12-2.7-8 0-14.4 2.6-19.2 7.8s-7.2 12.2-7.2 21c0 9.3 2.5 16.6 7.6 21.8 5 5.2 12 7.8 20.8 7.8 6.1 0 11.2-1.5 15.3-4.6 4.2-3.1 7.2-7.5 9.1-13.2H708v-18.1h53.6v22.9c-1.8 6.1-4.9 11.9-9.3 17.1-4.4 5.3-9.9 9.6-16.6 12.8-6.7 3.3-14.3 4.9-22.7 4.9-10 0-18.9-2.2-26.7-6.6-7.8-4.4-13.9-10.4-18.3-18.2-4.4-7.8-6.6-16.7-6.6-26.6s2.2-18.9 6.6-26.7c4.4-7.8 10.4-13.9 18.2-18.3 7.8-4.4 16.7-6.6 26.6-6.6 12.1 0 22.3 2.9 30.6 8.8s13.8 14 16.5 24.3h-27.3z"/><path class="st0" d="M320.5 319.7c1.6-2.8 3.9-5 6.7-6.6 2.8-1.6 5.9-2.4 9.3-2.4 3.8 0 7.2.9 10.2 2.8 3 1.9 5.2 4.6 6.5 8h-7.1c-.9-1.9-2.2-3.3-3.9-4.3-1.7-.9-3.6-1.4-5.8-1.4-2.4 0-4.5.5-6.4 1.6-1.9 1.1-3.3 2.6-4.4 4.6-1.1 2-1.6 4.3-1.6 7s.5 5 1.6 7 2.5 3.5 4.4 4.6c1.9 1.1 4 1.6 6.4 1.6 2.2 0 4.1-.5 5.8-1.4 1.7-.9 3-2.4 3.9-4.3h7.1c-1.3 3.5-3.5 6.1-6.5 8-3 1.9-6.4 2.8-10.2 2.8-3.4 0-6.5-.8-9.3-2.4-2.8-1.6-5-3.8-6.7-6.6-1.6-2.8-2.5-6-2.5-9.5 0-3.1.9-6.3 2.5-9.1zM381.8 340h-15.1l-2.6 7.4H358l12.9-36.1h6.8l12.9 36.1h-6.2l-2.6-7.4zm-1.7-4.9-5.9-16.7-5.9 16.7h11.8zM414.9 347.3l-8.3-14.4h-4.5v14.4h-5.9v-36h12.4c2.8 0 5.1.5 7 1.5 1.9 1 3.4 2.3 4.3 3.9 1 1.6 1.4 3.4 1.4 5.4 0 2.4-.7 4.5-2 6.4-1.4 1.9-3.5 3.2-6.3 3.9l8.9 14.9h-7zm-12.8-19.1h6.5c2.2 0 3.9-.6 5-1.7s1.7-2.6 1.7-4.5-.6-3.3-1.7-4.4c-1.1-1.1-2.8-1.6-5-1.6h-6.5v12.2zM443 319.7c1.6-2.8 3.9-5 6.7-6.6 2.8-1.6 5.9-2.4 9.3-2.4 3.8 0 7.2.9 10.2 2.8 3 1.9 5.2 4.6 6.5 8h-7.1c-.9-1.9-2.2-3.3-3.9-4.3-1.7-.9-3.6-1.4-5.8-1.4-2.4 0-4.5.5-6.4 1.6-1.9 1.1-3.3 2.6-4.4 4.6-1.1 2-1.6 4.3-1.6 7s.5 5 1.6 7 2.5 3.5 4.4 4.6c1.9 1.1 4 1.6 6.4 1.6 2.2 0 4.1-.5 5.8-1.4 1.7-.9 3-2.4 3.9-4.3h7.1c-1.3 3.5-3.5 6.1-6.5 8-3 1.9-6.4 2.8-10.2 2.8-3.4 0-6.5-.8-9.3-2.4-2.8-1.6-5-3.8-6.7-6.6-1.6-2.8-2.5-6-2.5-9.5 0-3.1.8-6.3 2.5-9.1zM504.3 340h-15.1l-2.6 7.4h-6.2l12.9-36.1h6.8l12.9 36.1h-6.2l-2.5-7.4zm-1.7-4.9-5.9-16.7-5.9 16.7h11.8zM541.9 311.3v4.8h-9.6v31.2h-5.9v-31.2h-9.6v-4.8h25.1zM569.6 340h-15.1l-2.6 7.4h-6.2l12.9-36.1h6.8l12.9 36.1h-6.2l-2.5-7.4zm-1.6-4.9-5.9-16.7-5.9 16.7H568zM589.9 342.6h12.2v4.8H584v-36h5.9v31.2zM614.2 345.3c-2.8-1.6-5.1-3.8-6.7-6.6-1.6-2.8-2.5-6-2.5-9.5s.8-6.7 2.5-9.5c1.6-2.8 3.9-5 6.7-6.6 2.8-1.6 5.9-2.4 9.3-2.4 3.4 0 6.5.8 9.3 2.4 2.8 1.6 5 3.8 6.7 6.6 1.6 2.8 2.4 6 2.4 9.5s-.8 6.7-2.4 9.5c-1.6 2.8-3.8 5-6.7 6.6-2.8 1.6-5.9 2.4-9.3 2.4-3.4 0-6.5-.8-9.3-2.4zm15.7-4.4c1.9-1.1 3.3-2.6 4.4-4.7 1.1-2 1.6-4.4 1.6-7 0-2.7-.5-5-1.6-7s-2.5-3.5-4.4-4.6c-1.9-1.1-4-1.6-6.4-1.6-2.4 0-4.5.5-6.4 1.6-1.9 1.1-3.3 2.6-4.4 4.6-1.1 2-1.6 4.3-1.6 7s.5 5 1.6 7 2.5 3.6 4.4 4.7c1.9 1.1 4 1.6 6.4 1.6 2.4.1 4.5-.5 6.4-1.6zM673.8 321.7c-.9-1.8-2.2-3.2-3.9-4.1-1.7-.9-3.6-1.4-5.8-1.4-2.4 0-4.5.5-6.4 1.6-1.9 1.1-3.3 2.6-4.4 4.6-1.1 2-1.6 4.3-1.6 6.8 0 2.6.5 4.9 1.6 6.9s2.5 3.5 4.4 4.6c1.9 1.1 4 1.6 6.4 1.6 3.2 0 5.8-.9 7.8-2.7 2-1.8 3.2-4.2 3.7-7.3h-13.5v-4.7H682v4.6c-.4 2.8-1.4 5.4-3 7.7s-3.7 4.2-6.3 5.6c-2.6 1.4-5.4 2.1-8.6 2.1-3.4 0-6.5-.8-9.3-2.4-2.8-1.6-5-3.8-6.7-6.6-1.6-2.8-2.5-6-2.5-9.5s.8-6.7 2.5-9.5c1.6-2.8 3.9-5 6.7-6.6 2.8-1.6 5.9-2.4 9.3-2.4 3.8 0 7.2.9 10.2 2.8 3 1.9 5.2 4.6 6.5 8h-7zM421 21.6l8.5 17.2 19.1 2.8L434.8 55l3.3 19-17.1-9-17 9 3.3-19-13.8-13.4 19-2.8zM500 21.6l8.5 17.2 19 2.8L513.8 55l3.2 19-17-9-17 9 3.2-19-13.7-13.4 19-2.8zM579 21.6l8.5 17.2 19 2.8L592.7 55l3.3 19-17-9-17.1 9 3.3-19-13.8-13.4 19.1-2.8z"/></svg>